<svg xmlns="http://www.w3.org/2000/svg" width="1133" height="1213"><defs><style>@font-face{font-family:&quot;Virgil&quot;;src:url(https://excalidraw.com/FG_Virgil.woff2)}@font-face{font-family:&quot;Cascadia&quot;;src:url(https://excalidraw.com/Cascadia.woff2)}</style></defs><path fill="#fff" d="M0 0h1133v1213H0z"/><path d="M55.495 71.865c46.511 1.023 92.65 1.764 145.781.63m-144.459-.93c50.177.482 100.469 1.61 143.538.603m-.07-1.35c-2.29 18.893-1.25 39.277 1.168 78.207m-1.015-76.597c-.663 14.959-1.127 31.716-.361 75.525m1.47 1.314c-59.391-2.048-114.293-2.299-144.194-2.942m142.382.504c-33.114-.066-66.775-.595-143.71.085m-.524 1.392c.468-25.894-.913-46.58 1.187-75.16m-1.26 74.634c.585-15.698.821-32.556.442-76.28" stroke="#000" fill="none"/><text y="21.32" font-family="Virgil, Segoe UI Emoji" font-size="18.325" style="white-space:pre" transform="translate(91.058 93.948)">Projects</text><path d="M128.126 155.916c.132 28.54.061 141.75.386 170.095m1.452-170.57c.612 28.657.895 142.997.855 171.543" stroke="#000" fill="none"/><path d="M122.339 297.52c-1.47 8.541.628 14.643 9.979 28.37m-11.638-27.575c1.517 7.116 3.894 13.72 10.69 28.85" stroke="#000" fill="none"/><path d="M142.86 297.496c-5.753 8.428-7.937 14.535-10.542 28.394m8.883-27.599c-3.108 7.08-5.356 13.69-9.832 28.874M57.36 338.434c38.638-1.043 75.562-.43 143.823-3.182m-145.14 2.052c52.534-.893 106.872.416 143.99-.604m-1.611-1.922c1.927 29.473-.296 61.138-.114 78.457m1.988-76.495c.48 18.56-.261 35.85-1.31 75.09m.09.777c-28.6.7-58.888-1.286-142.996-.945m144.4.188c-49.091 1.057-97.585.938-145.397.44m-.071 1.79c2.603-29.67-.612-57.974-.813-75.44m1.08 74.328c.419-27.471 1.573-54.528.39-76.74" stroke="#000" fill="none"/><text y="21.32" font-family="Virgil, Segoe UI Emoji" font-size="18.325" style="white-space:pre" transform="translate(90.6 359.206)">Artifacts</text><text y="21.32" font-family="Virgil, Segoe UI Emoji" font-size="18.325" style="white-space:pre" transform="translate(148.783 218.56)">Webpack</text><path d="M379.29 49.351c223.572 2.926 445.718 2.06 739.022-.639M379.278 49.82c246.26 2.017 491.526 1.709 739.264-.612m.898 1.142a31994.199 31994.199 0 00-.9 389.991m.263-390.38c1.55 125.067 1.143 249.306.109 389.84m-.683-.64c-251.895 1.602-504.802 2.676-739.171.742m739.524-.608c-283.146.856-565.933.818-738.762.081m-.85-.892c-2.238-83.292-.421-166.995-.551-388.938m1.38 389.524c.757-133.484.494-268.742-.947-389.937" stroke="#000" stroke-width="4" fill="none"/><path d="M128.75 426.563c.215 26.703.647 134.126.782 161.064m1.272-162.018c.129 27.427-1.869 136.792-2.198 163.546M119.072 560.881c2.221 6.712 5.463 11.914 8.03 27.92m-7.864-28.645c3.037 10.525 5.434 19.83 9.05 28.144" stroke="#000" fill="none"/><path d="M139.59 561.196c-2.588 6.59-4.154 11.718-12.488 27.605m12.655-28.33c-3.77 10.326-8.182 19.526-11.47 27.83M56.082 597.17c55.403.73 109.32-1.684 143.428.666m-144.153-.328c40.515-1.522 79.855-1.285 143.653-.97m2.407-1.14c-3.622 25.002-3.306 49.064-2.053 79.597m.33-76.916c.252 15.612 1.36 32.229.697 74.913m-1.846-1.178c-49.427 2.325-97.767.914-142.833 3.212m143.333-2.079c-51.614-.147-105.757.896-142.306.025m-1.876 2.27c1.346-25.95 2.371-52.963.852-78.29m.583 77.099c-1.355-18.92-.926-34.63-.57-75.943" stroke="#000" fill="none"/><text y="21.32" font-family="Virgil, Segoe UI Emoji" font-size="18.325" style="white-space:pre" transform="translate(79.002 621.397)">Build Done</text><text y="21.32" font-family="Virgil, Segoe UI Emoji" font-size="18.325" style="white-space:pre" transform="translate(147.18 490.919)">Webpack</text><path d="M777.403 70.092c112.731 1.932 225.938 2.16 319.93 1.514m-319.995-1.199c67.27-.503 134.12.291 320.738-.38m-1.004 2.28c1.116 17.293.952 39.889 1.013 73.33m.017-74.835c.038 22.055.206 45.278.016 72.061m.672 1.824c-127.728-.04-253.749-.805-322.476-1.71m321.358.342c-119.094-.652-237.808-.725-320.063.869m-1.347-1.248c1.174-29.961 1.955-56.994 2.502-73.003M776.114 144c-.21-20.027-.467-39.144 1.572-74.371M776.874 157.3c106.975 1.428 212.12 2.91 322.63-1.388m-322.085.983c65.533.3 131.792-.035 321.365.546m-1.58.725c-1.423 14.843 2.35 30.935.878 73.08m-.36-73.923c-.518 23.978 1.088 47.263.467 72.303m.003-.28c-76.808.49-155.652-.982-321.806-.194m321.429 1.598c-84.154-1.455-170.257-1.55-320.303-.857m-.53.154c-.84-18.642-.267-36.66-.433-71.627m1.716 72.224c-1.22-16.243-1.283-34.215-.339-74.351M777.176 242.389c78.354 1.671 154.671.2 320.226-.194m-320.603 1.599c86.339-.174 170.728-.269 321.729-.858m-.53.154c-1.434 20.086-.86 40.795-.433 74.751m1.716-74.153c-.638 17.414-.7 33.1-.339 72.026m.289.29c-70.684-2.615-141.76-3.003-321.574-.329m321.036.208c-106.182-.663-211.936-.408-321.076.6m-.08.057c-.552-17.058.631-35.142.93-73.383m-1.482 72.449c.995-26.889.966-55.593.34-71.33" stroke="#000" fill="none"/><text x="25.725" y="17.189" font-family="Virgil, Segoe UI Emoji" font-size="14.493" text-anchor="middle" style="white-space:pre" transform="translate(905.94 97.637)">Chrome</text><text x="105.073" y="17.189" font-family="Virgil, Segoe UI Emoji" font-size="14.493" text-anchor="middle" style="white-space:pre" transform="translate(832.751 182.058)">WebDriver or chrome-launcher</text><text x="45.652" y="17.189" font-family="Virgil, Segoe UI Emoji" font-size="14.493" text-anchor="middle" style="white-space:pre" transform="translate(892.172 268.29)">Lighthouse.js</text><path d="M402.068 73.512c68.357.77 138.037 1.694 242.314-.12m-241.268.316c66.626.623 133.742.284 240.983-.362m.941 1.507c-.07 89.136-.33 176.647-1.665 334.877m.453-335.038c1.98 94.432 2.239 190.877.833 333.09m-.444.592c-94.476-.65-190.573 1.141-239.926 1.151m239.841-.976c-74.832-1.478-149.347-.762-241.096.274m-1.292-1.01c-.161-126.857-1.5-253.564.698-333.251m-.06 333.426c-1.476-69.213-1.916-139.565.228-333.594" stroke="#000" fill="none"/><text x="27.513" y="17.478" font-family="Virgil, Segoe UI Emoji" font-size="14.674" text-anchor="middle" style="white-space:pre" transform="translate(490.208 92.838)">Express</text><path d="M230.404 489.153c15.341-31.79 77.446-158.932 92.955-190.495m-91.377 189.759c15.735-31.731 77.94-157.456 93.595-188.649M323.182 328.009c-1.612-8.054 1.191-16.398 4.059-28.629m-4.896 29.827c1.05-8.11 2.71-17.264 3.626-30.17" stroke="#000" stroke-width="4" fill="none"/><path d="M304.811 318.864c3.54-5.34 11.433-11.15 22.43-19.484m-23.266 20.682c6.304-5.359 13.306-11.854 21.996-21.026" stroke="#000" stroke-width="4" fill="none"/><path d="M329.284 264.442c18.452 2.14 40.622 4.43 72.051 1.846m-71.233.872c21.43-.938 42.432-1.103 71.223.183m-.3.586c-.414 4.52-1.737 11.564-.32 22.228m.343-24.121c.106 8.64-1.335 16.136-.911 24.92m.452 1.497c-22.068-1.873-48.599-1.792-67.898.629m68.002-1.353c-24.863-.932-47.725.407-69.687-.669m.291.534c-2.122-9.813-1.486-14.406-1.54-25.646m1.535 25.087c.698-9.51.004-20.275-.969-24.26" stroke="#000" fill="none"/><text x="14.674" y="17.478" font-family="Virgil, Segoe UI Emoji" font-size="14.674" text-anchor="middle" style="white-space:pre" transform="translate(351.176 267.086)">port</text><path d="M410.447 134.515c70.786-2.528 141.063-2.854 213.287-1.004m-211.653-.163c59.63 1.145 118.306.763 210.876-1.332m.786.173c-.7 11.973-2.994 25.568-.948 57.156m-.464-56.647c-.099 17.997-.735 34.422-.5 58.161m-1.075.265c-53.813-1.835-110.608 1.39-210.535-1.352m212.579.146c-70.154 1.947-139.204 2.682-210.617.76m-.259.953c-1.944-24.129-1.487-47.383.087-58.65m.221 57.532c.148-14.82-.657-29.692-.24-58.36" stroke="#000" fill="none"/><text x="38.151" y="17.478" font-family="Virgil, Segoe UI Emoji" font-size="14.674" text-anchor="middle" style="white-space:pre" transform="translate(478.102 147.497)">URL Queue</text><path d="M413.406 272.576c49.297-2.326 99.19-1.096 210.895-1.04m-209.53 1.456c46.076-1.132 93.597-1.634 210.142-.635m.075.737c.106 39.821.685 80.833-1.058 115.676m2.041-115.146c-.49 30.036-1.55 62.856-1.444 116.621m-1.08-1.746c-80.651.02-164.232 1.704-209.362 1.453m211.636.28c-50.558-.313-100.34.012-210.458-.185m.161-1.054c-1.229-31.829.718-66.893-1.927-115.09m1.564 117.005c-1.888-31.839-1.311-62.848-.886-117.983" stroke="#000" fill="none"/><text x="46.588" y="17.478" font-family="Virgil, Segoe UI Emoji" font-size="14.674" text-anchor="middle" style="white-space:pre" transform="translate(471.233 286.216)">Task Handler</text><path d="M515.777 262.836c.013-10.448 1.028-52.545 1.435-62.73m.226 61.678c-.173-10.327-1.256-50.329-1.164-60.678" stroke="#000" fill="none"/><path d="M526.834 229.21c-5.138-7.61-5.913-19.817-11.73-28.953m12.132 28.913c-1.939-6.016-5.964-13.14-9.996-27.704" stroke="#000" fill="none"/><path d="M506.314 229.443c1.585-7.51 7.534-19.794 8.79-29.186m-8.388 29.145c3.113-5.906 4.138-13.087 10.524-27.936" stroke="#000" fill="none"/><text y="17.478" font-family="Virgil, Segoe UI Emoji" font-size="14.674" style="white-space:pre" transform="translate(534.229 208.759)">Read</text><text y="23" font-family="Virgil, Segoe UI Emoji" font-size="20" style="white-space:pre" transform="translate(253 424)">Post</text><path d="M625.012 269.142c13.117-.098 64.293-1.312 77-1.255m-77.928.021c13.02.143 63.708 1.237 76.986 1.195M702.218 268.591c-.27-26.74-1.366-133.392-1.462-160.072m.117 159.074c-.483-27.096-1.25-133.846-1.193-160.661M700.809 107.236c11.607-.429 58.405-2.337 69.973-2.619m-71.008 1.96c11.419-.362 58.839-.937 70.47-.886M743.338 117.41c8.343-5.246 20.988-10.657 28.235-10.136m-28.893 8.11c7.206-3.059 14.708-6.023 28.076-8.75" stroke="#000" fill="none"/><path d="M743.224 96.889c8.507 2.851 21.197 5.538 28.349 10.385m-29.006-12.41c7.18 2.628 14.713 5.353 28.189 11.77" stroke="#000" fill="none"/><text y="23" font-family="Virgil, Segoe UI Emoji" font-size="20" style="white-space:pre" transform="translate(680 170)">Notify</text><path d="M925.818 128.927c-.113 8.303.612 41.067.795 49.439" stroke="#000" stroke-width="1.5" fill="none" stroke-dasharray="3 6"/><path d="M916.786 156.545c3.427 8.008 7.62 11.984 10.94 22.856M933.544 156.186c-2.01 7.96-3.25 12.051-5.817 23.215" stroke="#000" stroke-width="1.5" fill="none" stroke-dasharray="3 4"/><path d="M932.015 213.612c.354 8.15-.255 40.51.079 48.481" stroke="#000" stroke-width="1.5" fill="none" stroke-dasharray="3 6"/><path d="M925.38 237.608c1.105 8.064 1.855 12.083 8.609 23.86M942.153 237.476c-2.49 8.234-5.336 12.282-8.164 23.992" stroke="#000" stroke-width="1.5" fill="none" stroke-dasharray="3 4"/><path d="M924.715 299.448c.16 10.215.724 50.975.617 61.496" stroke="#000" stroke-width="1.5" fill="none" stroke-dasharray="3 6"/><path d="M914.887 333.072c1.637 5.538 7.164 14.794 11.183 28.635M935.408 333c-3.93 5.557-3.97 14.833-9.338 28.707" stroke="#000" stroke-width="1.5" fill="none" stroke-dasharray="3 4"/><path d="M780.202 356.638c70.178-3.647 145.055-4.032 316.559-2.04m-317.663 1.006c66.775-1.045 133.214-1.221 317.675-.267m-.855-1.22c1.663 21.595 1.467 46.51-.357 54.246m2.3-52.802c-.73 15.873-.757 34.357-.288 54.242m.596-1.403c-68.047-.341-132.26.14-318.916 1.815m318.262-.617c-77.995-1.75-156.161-1.908-318.808-.599m.887-.192c1.102-18.725-.219-41.572-1.204-53.424m1.215 53.79c-1.546-14.629-1.7-27.467-.776-54.257" stroke="#000" fill="none"/><text x="131.5" y="23" font-family="Virgil, Segoe UI Emoji" font-size="20" text-anchor="middle" style="white-space:pre" transform="translate(812.5 366.5)">Report.html or Report.json</text><path d="M780.06 367.232c-35.804-.031-180.14.08-216.266.048m215.364 2.134c-35.936.156-180.2-.741-216.352-1.005" stroke="#000" fill="none"/><path d="M589.687 358.204c-7.549 2.14-15.52 7.202-26.997 9.265m28.68-9.633c-10.701 3.755-19.38 7.545-28.939 10.055" stroke="#000" fill="none"/><path d="M589.554 378.725c-7.413-3.365-15.349-3.807-26.864-11.256m28.547 10.888c-10.802-3.362-19.434-6.69-28.806-10.466" stroke="#000" fill="none"/><text y="23" font-family="Virgil, Segoe UI Emoji" font-size="20" style="white-space:pre" transform="translate(678 360)">Return</text><path d="M565.992 365.659c.224 35.052 1.187 175.62 1.355 210.656m.571-208.364c.183 35.257-.843 174.947-1.082 209.76" stroke="#000" stroke-width="4" fill="none"/><path d="M555.748 550.837c3.101 6.74 4.966 14.186 12.824 26.38m-12.766-27.813c3.665 9.746 8.058 18.541 10.435 28.285" stroke="#000" stroke-width="4" fill="none"/><path d="M576.269 550.98c-2.182 6.613-5.601 14.023-7.697 26.237m7.755-27.671c-2.798 9.628-4.868 18.378-10.086 28.143" stroke="#000" stroke-width="4" fill="none"/><path d="M363.577 554.808c298.353 2.286 597.317 2.212 759.573-.061m-758.862.965c234.85.782 470.376.686 758.56-.26m.744 1.942c.084 49.052.024 97.9.32 158.52m-1.858-161.38c.665 57.327.76 114.916 1.914 161.998m-.258.963c-215.701.99-430.962.379-759.636-.256m758.8.343c-215.352-2.396-430.77-2.6-759.148-.356m.67-.783c1.3-42.102.793-85.53-.244-159.412m.1 159.767c-1.375-56.55-1.13-112.13-.871-161.608M9.165 47.009c50.23 1.43 99.638-.567 227.99 1.59M10.85 48.111c70.328-.777 139.309-1.442 226.39-.923m-.39.4c.353 224.22.393 447.61-.456 667.228m.839-667.324c1.968 169.184 2.393 338.291-.02 666.933m-.31 1.597c-87.542.907-178.029.603-227.979-1.643m227.714.366c-59.352-1.254-120.762-.848-227.029.594m.7-1.53c.954-263.321.709-525.62-.352-665.9M9.81 714.625C8.944 566.9 8.557 419.072 9.807 47.597" stroke="#000" stroke-width="4" fill="none"/><text y="23" font-family="Virgil, Segoe UI Emoji" font-size="20" style="white-space:pre" transform="translate(13 10)">Local</text><text y="23" font-family="Virgil, Segoe UI Emoji" font-size="20" style="white-space:pre" transform="translate(382 13)">Pod</text><path d="M500.033 584.625c-.016 17.385-1.233 87.084-1.19 104.798m.273-105.777c.34 17.441 1.738 89.226 1.832 106.75" stroke="#000" fill="none"/><path d="M206.038 639.146c31.583.096 157.326.207 188.696.318m-190.135 1.804c31.468.39 157.02-.35 189.047-.357M363.925 650.817c8.04-3.246 15.287-6.184 30.453-8.904m-28.248 8.9c8.666-4.155 20.638-6.697 28.277-9.4" stroke="#000" stroke-width="4" fill="none"/><path d="M363.86 630.296c7.851 1.61 15.113 3.527 30.518 11.617m-28.313-11.621c8.844 3.359 20.84 8.33 28.342 11.12" stroke="#000" stroke-width="4" fill="none"/><g font-family="Virgil, Segoe UI Emoji" font-size="20"><text y="23" style="white-space:pre" transform="translate(396 604)">Project</text><text y="55" style="white-space:pre" transform="translate(396 604)">Artifacts</text></g><g font-family="Virgil, Segoe UI Emoji" font-size="20"><text y="23" style="white-space:pre" transform="translate(527 587)">Projects</text><text y="55" style="white-space:pre" transform="translate(527 587)">Page</text><text y="87" style="white-space:pre" transform="translate(527 587)">Report</text></g><text y="23" font-family="Virgil, Segoe UI Emoji" font-size="20" style="white-space:pre" transform="translate(364 517)">OSS</text><path d="M136.05 908.107c-.526 14.262-.892 65.623-1.867 85.099-.974 19.476-3.13 26.721-3.98 31.756-.85 5.035-1.093-1.174-1.115-1.547m8.881-116.419c-.732 14.422-3.217 67.339-4.627 87.16-1.41 19.823-3.08 26.678-3.833 31.773-.753 5.095-.537-.709-.687-1.203" stroke="#000" fill="none"/><path d="M134.231 909.777c.157.128-1.071 1.26.036 2.014 1.108.753-14.37 1.831 6.61 2.504 20.979.674 96.745 1.558 119.265 1.537 22.52-.021 6.333-2.224 15.858-1.662 9.526.562 34.17 4.388 41.297 5.034m-184.409-7.365c.08.284-1.164.719.566 1.309s-11.308 2.113 9.813 2.23c21.12.116 95.053-1.46 116.913-1.531 21.86-.072 4.55.33 14.248 1.098 9.7.767 36.987 2.657 43.946 3.507M320.205 917.724c.494 11.282 1.96 56.247 2.395 69.695.435 13.45-.186 8.953.216 10.998.402 2.046 1.181-5.185 2.196 1.275 1.015 6.46 3.514 31.137 3.893 37.487m-6.681-117.32c.48 11.474-.123 52.605-.183 65.936-.059 13.331-.642 11.647-.172 14.049.47 2.401 2.018-5.913 2.992.36.973 6.273 2.304 31.149 2.849 37.28M126.239 1043.785c33.567.346 166.727 1.819 200.632 1.658 33.904-.161 2.474-2.521 2.797-2.625m-204.841-.124c33.454.007 166.996.618 201.01.766 34.015.148 2.617.239 3.08.123M146.3 932.184c-.227 5.143.207 13.516-.417 30.621-.623 17.105-2.684 59.874-3.322 72.008m5.568-103.396c.105 5.307.978 15.496-.125 32.843-1.102 17.348-5.448 59.201-6.49 71.241M148.806 929.95c25.963 0 130.498-.67 156.598-.401m-154.84-.874c26.349.206 130.922 1.78 157.143 1.973" stroke="#000" fill="none"/><path d="M305.246 929.865c.155.253 2.1-3.246 2.332 1.236.233 4.482-1.156 20.414-.937 25.655.22 5.242 1.256-6.42 2.255 5.793 1 12.212 3.236 56.075 3.741 67.481m-5.68-101.46c-.036-.02-.633-4.139-.277.807.356 4.946 2.108 23.687 2.414 28.869.305 5.181-.919-9.743-.579 2.22.34 11.964 1.881 57.962 2.618 69.56M149.53 1034.25c27.031-.001 136.093.058 162.996.009m-164.502 2.313c26.913.203 137.173-.772 164.163-1.063M204.232 975.074c1.902 3.691 8.143 17.359 11.462 23.082 3.32 5.724 6.919 9.622 8.453 11.26m-21.462-32.245c1.715 3.892 8.362 17.432 11.828 22.48 3.465 5.05 7.11 6.301 8.964 7.814M227.62 972.267c.49-.2.903-2.953 3.13-1.25 2.228 1.704 8.723 9.462 10.235 11.47m-11.33-11.212c.856-.1 1.468-1.4 3.229.678 1.76 2.078 6.24 9.715 7.335 11.793M175.129 1047.797c.134 2.026 1.442 10.006 1.482 12.457.041 2.45-1 1.659-1.239 2.25m1.605-15.737c.047 2.151-.57 11.968-.888 14.73-.318 2.762-.97 1.241-1.022 1.842M211.054 1046.866c.105 1.283 1.5 5.478.957 7.667-.543 2.19-3.585 4.6-4.215 5.472m1.866-11.012c.002.981 2.455 2.047 1.97 3.533-.484 1.486-4.342 3.972-4.876 5.384M249.845 1045.568c.396.308 2.344-.197 2.882 2.19.539 2.386.462 10.347.35 12.129m-1.174-12.185c.217.56-.221-.095-.123 1.577.099 1.671.688 6.836.715 8.453M280.487 1045.071c-.748 2.31-3.782 11.949-4.382 14.284m3.133-15.403c-.955 1.974-3.659 11.654-4.115 13.857" stroke="#000" fill="none"/><path d="M120.687 1063.455c34.78.48 173.846 1.873 208.683 2.27m-210.26-3.321c34.62.212 174.2 1.424 209.181 1.7" stroke="#000" fill="none"/><path d="M328.678 1065.39c-.921 1.16 1.14 1.483-3.708 6.465-4.848 4.981-17.193 14.357-25.379 23.423-8.186 9.066-19.126 25.226-23.736 30.974-4.61 5.748-3.223 2.76-3.924 3.514m58.413-65.07c-.61.792 2.173.107-3.089 5.358-5.262 5.252-20.041 16.693-28.484 26.15-8.443 9.455-17.537 24.942-22.174 30.585-4.637 5.644-4.504 2.711-5.648 3.276M141.012 1069.02c-2.368 2.707-6.4 9.675-13.749 17.062-7.348 7.386-25.127 22.567-30.343 27.257m42.865-42.23c-2.514 2.847-5.712 8.756-12.922 16.038-7.21 7.281-25.21 23.463-30.34 27.651M93.55 1126.44c19.258-.057 96.44.799 116.363 1.43 19.923.632-7.363 1.37 3.173 2.361 10.536.99 50.153 3.14 60.042 3.58M92.1 1128.56c19.05.002 97.018.014 117.015.418 19.996.405-7.822 1.03 2.966 2.01 10.787.981 51.932 3.587 61.76 3.877M151.286 1081.185c23.636.068 119.676 1.354 142.956 1.35 23.28-.005-2.965-1.292-3.274-1.378m-137.99 2.339c23.447-.301 116.808-2.456 140.213-2.679 23.406-.223.263.933.22 1.34M140.655 1095.325c23.645.143 118.204.645 140.717.812 22.514.168-4.812-.142-5.635.192m-136.461 1.197c23.573.422 118.565.236 141.144.161 22.578-.075-5.073-.326-5.673-.611" stroke="#000" fill="none"/><path d="M120.526 1111.912c25.85-.368 127.901-1.767 153.73-1.353 25.83.413.934 3.165 1.246 3.834m-155.99-3.441c26.29.253 130.697-.277 157.116.52 26.419.795 1.446 3.537 1.397 4.256M188.502 1074.794c.158.87 2.611-.625-1.091 3.986-3.703 4.611-16.081 18.956-21.125 23.68-5.043 4.725-7.336 3.41-9.136 4.666-1.8 1.256-1.671 2.575-1.666 2.868m32.093-35.794c.083.579 2.438-1.471-1.152 2.947-3.59 4.42-15.524 18.945-20.39 23.566-4.868 4.622-7.359 2.477-8.813 4.163-1.454 1.685.38 5.48.088 5.95M230.318 1077.433c.349.102.554-.393.655-.406.1-.012 1.117-.831-.05.33-1.169 1.16-4.133 3.761-6.957 6.637-2.825 2.876-5.387 6.71-9.99 10.617-4.602 3.908-14.858 10.567-17.628 12.827-2.77 2.26.699.82 1.01.733.312-.087.359-.998.86-1.255m31.197-30.044c.26-.251.67-1.956.824-1.696.155.26 1.116 2.13.105 3.258-1.01 1.127-3.727.761-6.172 3.508-2.445 2.748-4.069 8.818-8.497 12.975s-15.189 9.456-18.072 11.967c-2.884 2.512.32 3.232.77 3.102.452-.13 1.783-3.6 1.934-3.884" stroke="#000" fill="none"/><path d="M268.987 1073.048c-4.016 5.062-18.811 24.16-23.613 30.011-4.803 5.85-2.601 1.726-5.201 5.092-2.6 3.366-7.79 12.245-10.397 15.104-2.608 2.859-4.204 1.39-5.25 2.05m43.331-50.075c-3.733 5.299-15.5 23.315-20.198 28.94-4.697 5.623-5.093 1.456-7.984 4.805-2.891 3.349-6.64 12.565-9.364 15.287-2.725 2.722-6.041.623-6.984 1.044M185.006 1109.528c-.557.842-4.034 5.87-3.86 5.846.173-.025 4.43-5.301 4.9-5.993m-2.422 2.288c-.17.535-.726 2.377-.346 2.123.38-.253 2.55-2.86 2.625-3.645" stroke="#000" fill="none"/><path d="M184.715 1105.753c4.88.506 25.361 1.901 28.922 2.719 3.562.817-2.635 1.578-7.553 2.184-4.918.606-25.27 1.099-21.955 1.453 3.317.354 35.445-.042 41.853.672 6.407.713 4.395 3.491-3.41 3.61-7.804.119-36.136-2.108-43.419-2.898-7.282-.79-5.025-.93-.277-1.843 4.749-.912 26.225-3.317 28.766-3.633 2.541-.315-14.594 2.156-13.518 1.74 1.076-.415 18.024-3.662 19.975-4.23 1.95-.57-8.715.814-8.274.818.441.005 13.265-1.127 10.919-.791-2.347.335-20.407 2.342-25 2.805-4.594.462-7.527-.34-2.56-.031 4.968.308 27.313 1.442 32.366 1.881 5.053.44 2.17.1-2.047.753-4.217.653-23.17 2.895-23.254 3.163-.083.268 18.386-2.289 22.752-1.557 4.367.731 4.842 4.56 3.448 5.946-1.394 1.385-11.156 2.041-11.81 2.367-.654.326 6.555-.225 7.886-.412m-34.666-12.518c4.659.75 24.765 1.127 28.867 1.7 4.102.574.422 1.232-4.253 1.742-4.676.51-27.029 1.046-23.8 1.317 3.227.272 37.121-.191 43.166.311 6.045.503 1.155 2.318-6.896 2.706-8.05.387-34.769.365-41.409-.38-6.64-.747-2.89-3.155 1.569-4.096 4.458-.941 22.985-1.282 25.18-1.553 2.195-.272-13.3.545-12.012-.075 1.288-.62 18.044-3.012 19.741-3.646 1.698-.634-10.098-.475-9.555-.16.542.316 15.019 1.616 12.813 2.052-2.205.436-21.455.655-26.047.566-4.59-.089-6.74-1.085-1.5-1.098 5.24-.013 28.126.36 32.943 1.019 4.817.659-.002 2.43-4.04 2.935-4.04.506-20.538-.115-20.192.097.347.212 18.207.263 22.269 1.174 4.061.911 3.873 3.105 2.101 4.293-1.772 1.187-11.55 1.884-12.733 2.834-1.185.95 4.106 2.488 5.628 2.865M330.737 1073.4c-1.415-.107-4.108-2.261-7.13-.364-3.023 1.898-8.28 9.06-11.005 11.75-2.725 2.688-4.295 3.508-5.347 4.38m25.52-16.38c-1.135.04-3.432-3.78-6.938-1.633-3.506 2.146-11.128 11.356-14.097 14.51-2.969 3.153-2.565 3.58-3.716 4.412" stroke="#000" fill="none"/><path d="M323.25 1066.476c.858 2.742 3.465 12.45 5.4 16.02 1.935 3.57 5.146 4.594 6.209 5.4m-13-22.256c1.188 2.407 6.942 11.736 8.98 15.138 2.04 3.401 2.5 3.963 3.253 5.273M334.49 1091.866c-.535.688.793 2.318-2.866 4.024-3.658 1.706-14.521 3.804-19.087 6.214-4.565 2.41-6.411 6.992-8.306 8.248-1.894 1.256 2.428-3.995-3.06-.71-5.488 3.284-25 16.855-29.868 20.419m65.184-38.693c-.133.301 1.646 1.037-2.488 3.005-4.133 1.969-17.45 5.964-22.313 8.807-4.862 2.844-4.88 7.18-6.86 8.256-1.98 1.077.42-4.737-5.016-1.797-5.435 2.94-23.039 16.004-27.598 19.437M185.264 1101.605c-.01 1.296 1.252 7.47.668 9.524-.584 2.054-3.157 1.799-4.172 2.798-1.015 1-1.746 2.74-1.915 3.199m7.154-13.438c-.173.886-1.086 4.286-2.129 5.678-1.042 1.393-3.234 1.187-4.126 2.678-.891 1.491-.962 5.457-1.223 6.27M188.632 1104.735c6.574.222 32.817 1.25 39.271 1.923m-40.79-3.192c6.442.314 33.32 3.565 39.853 4.146M45.205 880.938c138.56.441 278.321 1.107 352.687.096m-354.227-.783c137.243 1.978 275.143 2.325 355.389-.02m.42 1.735c-1.452 71.715-1.656 146.797-.843 300.45m.277-301.354c.44 112.404-.197 225.764.24 300.906m-.893-.051c-108.198 1.233-216.326 2.75-354.909.584m355.912.134c-140.576 1.092-279.37 1.33-355.067-.377m.761-1.357c-1.004-71.676-.601-144.67-2.294-300.27m1.03 301.712c.9-90.136.387-181.206.166-301.268" stroke="#000" fill="none"/><text y="24.394" font-family="Virgil, Segoe UI Emoji" font-size="20.871" style="white-space:pre" transform="translate(50.55 834.888)">User</text><path d="M528.581 908.434c-.332 14.22-1.133 65.995-2.093 85.7s-3.088 27.409-3.665 32.53c-.576 5.123.387-1.347.205-1.798m7.4-114.136c-.436 14.358-3.583 64.856-4.97 84.418-1.388 19.561-3.015 28.336-3.353 32.953-.338 4.618 1.11-4.632 1.324-5.247" stroke="#000" fill="none"/><path d="M526.05 911.5c-.128.346-1.836.826-.392 1.554 1.443.727-12.377 2.56 9.05 2.813 21.428.252 97.138-.843 119.514-1.298 22.376-.455 5.333-2.14 14.743-1.432 9.41.708 34.804 4.628 41.719 5.678m-182.75-8.442c.255.616-1.11 3.105-.088 4.266 1.021 1.16-14.979 2.616 6.216 2.7 21.195.085 98.702-1.459 120.951-2.193 22.25-.734 3.025-3.2 12.548-2.211 9.522.989 37.344 7.293 44.589 8.148" stroke="#000" fill="none"/><path d="M712.971 918.442c.345 11.444 1.043 55.454 1.553 69.055.51 13.6 1.039 10.175 1.509 12.55s.679-4.668 1.31 1.699c.633 6.366 1.992 30.455 2.482 36.5m-8.396-117.713c.254 11.11 1.53 52.008 2.195 64.96.665 12.953 1.224 9.852 1.798 12.756.573 2.904.642-2.073 1.642 4.667 1 6.74 3.643 30.11 4.357 35.775M517.801 1044.747c33.62.293 167.853 1.69 202.108 1.508 34.254-.182 3-2.147 3.418-2.602m-203.849.096c33.534-.073 165.664.423 199.602.539 33.938.116 3.418.198 4.026.156M539.76 932.753c.075 5.556 1.039 14.74.204 32.116-.834 17.376-4.321 60.12-5.211 72.138m3.595-105.18c-.043 5.328 1.028 13.703.823 31.464-.205 17.76-1.235 62.625-2.05 75.1M542.5 931.463c26.428-.182 131.27-1.06 157.343-1.298m-158.683.408c26.448-.074 132.1.572 158.279.603" stroke="#000" fill="none"/><path d="M699.105 932.225c.035-.017.027-5.103.007-.91-.02 4.192-.618 20.89-.128 26.065.49 5.176 2.02-7.426 3.069 4.988 1.05 12.414 2.637 57.776 3.227 69.496m-7.48-100.14c.392.179 2.916-3.31 3.497 1.195.58 4.504-.12 20.751-.012 25.833.109 5.08.247-7.617.663 4.654.416 12.27.967 57.506 1.834 68.971M543.364 1034.555c26.942-.238 134.037-.183 160.84-.128m-161.755 2.215c26.775-.157 134.037-1.139 160.873-1.27M596.061 976.986c1.72 3.54 8.297 16.76 11.613 22.152 3.317 5.393 6.802 8.445 8.286 10.206m-18.224-33.337c2.046 4.273 9.205 18.958 12.057 24.723 2.85 5.765 3.882 8.165 5.05 9.866M620.66 971.821c.496.056 1.757-1.46 3.89.46 2.131 1.919 7.357 9.159 8.901 11.054m-14.184-9.493c.257.289 2.163-2.173 4.388-.376 2.226 1.797 7.21 9.254 8.964 11.16M567.244 1048.73c.055 2.133.497 10.185.46 12.816-.038 2.63-.625 2.337-.687 2.969m1.834-16.776c.536 2.314 1.65 12.242 1.212 15.278-.438 3.036-3.448 2.885-3.838 2.938M603.716 1047.96c-.043 1.266.183 5.027-.23 7.14-.413 2.113-2.01 4.524-2.248 5.536m1.073-10.414c-.223 1.565.447 4.41.16 6.388-.285 1.979-1.33 5.078-1.876 5.483M642.064 1047.17c.614.24 2.636-.706 3.227 1.665.591 2.37.176 10.697.318 12.56m-1.697-15.337c.551-.155.225-1.481.404.777.178 2.258.25 10.42.667 12.77M672.613 1045.906c-.63 2.33-3.097 11.045-3.553 13.362m2.028-14.435c-.777 2.006-2.616 10.277-2.853 12.452" stroke="#000" fill="none"/><path d="M513.505 1064.488c34.942.414 174.1 2.001 209.028 2.125m-210.514-3.048c34.865.112 174.588 1.01 209.706 1.478" stroke="#000" fill="none"/><path d="M722.535 1065.805c-.455 1.23 2.002 1.808-3.093 7.061-5.094 5.254-18.83 15.243-27.474 24.459-8.645 9.216-19.54 25.375-24.393 30.837-4.852 5.461-3.875 1.33-4.722 1.934m58.346-65.197c-.51.9 2.877 1.212-2.151 6.267-5.029 5.056-19.488 14.384-28.02 24.068-8.533 9.684-18.778 28.22-23.175 34.037-4.396 5.817-2.449.53-3.204.866M533.456 1071.846c-2.249 2.732-6.454 8.563-13.81 15.571-7.356 7.01-25.195 22.202-30.328 26.48m42.818-42.543c-2.331 2.886-5.794 10.111-13.016 17.427-7.222 7.315-25.313 22.296-30.316 26.466M487.292 1128.942c19.255.253 94.873.459 114.709.978 19.835.52-6.061 1.46 4.305 2.14 10.366.678 48.302 1.33 57.89 1.934m-177.81-5.675c19.047-.134 94.628-1.113 114.492-.27 19.864.845-5.835 4.217 4.693 5.333 10.529 1.117 48.501 1.438 58.48 1.366M545.726 1082.21c23.733-.165 118.728.462 141.858.393 23.13-.07-2.453-.614-3.079-.809m-139.816-.803c23.594.562 119.023 2.893 142.198 3.18 23.176.288-2.616-1.083-3.142-1.453M532.845 1097.348c23.314-.133 118.73-.497 141.27-.47 22.541.026-4.961.243-6.026.63m-133.218-.954c23.07.002 115.708 1.546 138.328 1.866 22.62.32-1.641.263-2.609.056" stroke="#000" fill="none"/><g><path d="M512.768 1112.516c25.738-.07 128.86-1.049 154.758-.809 25.898.24.243 1.882.63 2.247m-156.596-2.453c25.511.099 129.11.82 155.023 1.35 25.913.531-.217 1.58.458 1.837" stroke="#000" fill="none"/></g><g><path d="M580.163 1074.61c-.07.462 3.082-1.496-.81 3.238-3.89 4.735-17.467 20.194-22.536 25.17-5.07 4.976-6.403 3.717-7.882 4.685-1.479.968-1.115.586-.992 1.123m30.792-35.256c.346.565 6.206.86 2.938 5.467-3.268 4.607-17.028 17.782-22.545 22.176-5.517 4.395-8.984 2.945-10.558 4.192-1.574 1.247 1.229 2.447 1.114 3.29" stroke="#000" fill="none"/></g><g><path d="M621.863 1076.582c.026-.195.243-.51.63-.362.386.148 2.583.12 1.689 1.25-.894 1.13-4.11 2.364-7.055 5.53-2.945 3.167-6.154 9.273-10.617 13.469-4.464 4.196-13.087 9.523-16.164 11.708-3.078 2.185-2.587 1.127-2.3 1.404.287.276 3.494.545 4.022.253m28.34-31.03c.38-.094 3.856-1.525 4.447-1.63.59-.104.303-.079-.9 1.002-1.205 1.08-3.693 2.29-6.323 5.48-2.63 3.191-4.63 9.676-9.455 13.663-4.826 3.987-16.147 7.863-19.5 10.261-3.352 2.398-1.03 3.701-.616 4.125.413.424 2.294-1.246 3.095-1.583" stroke="#000" fill="none"/></g><g><path d="M660.27 1074.027c-3.89 5.169-17.684 25.628-22.536 31.691-4.853 6.063-3.794 1.76-6.578 4.685-2.783 2.925-7.854 9.935-10.122 12.863-2.27 2.928-2.903 4.306-3.49 4.707m44.535-51.681c-3.542 4.852-17.443 22.504-22.217 27.842-4.773 5.337-3.252.9-6.423 4.185-3.172 3.286-9.789 12.702-12.606 15.529-2.818 2.827-3.446.799-4.3 1.435" stroke="#000" fill="none"/></g><g><path d="M576.903 1110.047c-.265.582-1.112 3.815-.919 3.858.193.043 1.978-3.289 2.076-3.6m.695 1.773c-.335.75-2.98 2.903-3.181 2.752-.2-.15 1.858-2.84 1.979-3.656" stroke="#000" fill="none"/></g><g><path d="M575.115 1108.328c4.931.628 25.991 1.543 29.947 2.076 3.956.534-1.55.369-6.21 1.123s-25.295 3.219-21.75 3.403c3.543.183 36.915-2.588 43.014-2.3 6.099.287 1.345 3.712-6.423 4.022-7.768.31-33.153-1.467-40.184-2.16-7.03-.693-6.474-1.187-2.003-1.997s26.05-2.368 28.83-2.864c2.779-.496-13.214.242-12.153-.112s16.619-1.483 18.52-2.012c1.902-.528-7.475-.932-7.11-1.159.366-.226 11.957-.595 9.301-.2-2.655.394-20.48 1.983-25.234 2.57-4.753.587-8.41.666-3.285.952 5.125.285 28.952.293 34.037.76 5.086.469.64 1.502-3.526 2.048-4.166.546-21.788.977-21.47 1.227.317.25 18.937-.77 23.374.269 4.437 1.039 4.994 4.496 3.247 5.965-1.748 1.468-12.795 2.4-13.733 2.846-.938.446 6.707-.014 8.106-.168m-33.677-14.796c5.346.323 26.335-.031 30.43.72 4.094.75-.971 3.046-5.864 3.782-4.892.735-26.456.618-23.491.63 2.965.011 35.095-1.023 41.28-.56 6.185.461 3.822 2.653-4.173 3.333-7.994.68-36.928 1.343-43.794.745-6.867-.597-2.05-2.936 2.596-4.331 4.646-1.396 22.719-3.494 25.277-4.04 2.558-.547-11.195.677-9.929.76 1.266.083 15.9-.298 17.523-.26 1.624.037-8.209.52-7.781.483.427-.037 13.023-.624 10.347-.707-2.676-.083-21.57.107-26.405.208-4.835.102-8.087.449-2.606.4 5.48-.048 30.016-1.393 35.492-.69 5.476.704 1.935 3.958-2.636 4.91-4.572.952-24.53.62-24.792.805-.263.184 18.438-.471 23.217.299 4.778.77 7.156 3.007 5.454 4.32-1.701 1.315-14.658 3.042-15.665 3.566-1.006.523 7.998-.24 9.624-.423" stroke="#000" fill="none"/></g><g><path d="M724.588 1072.21c-.895.043-3.675-2.201-7.055.313-3.38 2.514-10.284 11.664-13.226 14.773s-3.304 3.435-4.424 3.881m23.783-16.964c-.95.27-3.992-2.467-6.823-.6-2.831 1.866-6.865 9.225-10.164 11.8-3.299 2.575-8.374 2.858-9.63 3.651" stroke="#000" fill="none"/></g><g><path d="M714.595 1067.357c1.13 2.272 4.538 10.587 6.835 14.167 2.297 3.58 5.794 6.48 6.947 7.316m-12.193-22.27c1.605 2.91 5.53 12.552 7.51 15.97 1.981 3.417 3.486 3.79 4.376 4.537" stroke="#000" fill="none"/></g><g><path d="M728.016 1090.809c-.771.992-.501 3.402-4.095 5.642-3.594 2.239-12.652 5.392-17.469 7.794-4.816 2.403-9.326 5.259-11.43 6.622-2.105 1.363 3.929-1.629-1.196 1.558-5.125 3.187-24.73 14.397-29.553 17.563m62.542-37.013c-.496.766 2.72.25-.704 1.813-3.425 1.561-14.6 4.726-19.845 7.558-5.245 2.832-9.327 8.195-11.626 9.435-2.3 1.24 2.71-5.398-2.171-1.997-4.882 3.4-22.626 18.964-27.119 22.401" stroke="#000" fill="none"/></g><g><path d="M577.977 1102.41c.34 1.406 2.098 8.218 1.729 9.924-.37 1.705-2.87-.63-3.945.309-1.076.939-2.351 4.581-2.51 5.327m6.48-13.468c.36 1.054.202 4.817-.514 6.289-.715 1.471-2.794 1.142-3.779 2.541-.985 1.4-1.884 5.216-2.13 5.856" stroke="#000" fill="none"/></g><g><path d="M580.418 1106.862c6.624.718 34.742 2.349 41.23 2.577m-39.552-3.163c6.52.46 32.597.97 39.184 1.484" stroke="#000" fill="none"/></g><g><path d="M444.366 878.577c78.76-2.952 161.493-1.285 352.943-1.766m-354.008.652c105.093.855 211.827.235 354.721-.408m-.326 1.055c1.129 79.422.444 160.82.148 300.937m.141-300.683c1.414 94.015 1.59 187.67-.092 300.985m-.206-.943c-76.802-1.968-155.436-1.211-353.352.502m353.404-.042c-140.899.154-282.311-.472-354.615-.134m-1.307-.657c-.274-88.864.317-177.674 1.435-299.38m-.646 299.89c.248-90.344-.272-180.85-.065-300.572" stroke="#000" fill="none"/></g><g><text y="24.394" font-family="Virgil, Segoe UI Emoji" font-size="20.871" style="white-space:pre" transform="translate(443.185 835.671)">Developer</text></g><g><path d="M11.844 821.22c359.168-2.633 719.915-4.1 1110.504.796m-1110.555.126c331.51-2.28 663.057-1.819 1110.634-.2m.909-1.025c-2.403 106.034-3.006 207.98-1.279 380.987m.848-379.462c-2.163 142.502-1.93 285.428-.248 380.374m.114.98c-309.004.848-619.04 0-1111.866-1.185m1112.067.434c-282.924-2.553-565.27-2.245-1111.287.197m-1.007.481c3.487-140.246 3.764-280.67 1.301-380.946m-.151 380.296c-2.505-115.879-1.45-231.2-.053-380.509" stroke="#000" stroke-width="4" fill="none"/></g><g><path d="M949.147 1009.17c.592.554 4.412 2.708 4.07 3.296-.343.588-5.892.457-6.127.232-.234-.225 3.889-1.534 4.721-1.582.833-.047.965.876.274 1.296-.691.42-3.613.767-4.418 1.223-.806.457-1.44 1.447-.417 1.517 1.023.071 5.52-1.3 6.555-1.09 1.036.208-.426 2.614-.342 2.341.084-.273.495-2.643.844-3.978.349-1.335 1.532-4.32 1.25-4.032-.284.287-1.985 5.642-2.95 5.759-.964.117-2.296-4.286-2.839-5.06m1.044-1.01c.526.22 2.543 2.175 1.745 2.637-.798.462-6.486-.06-6.535.135-.048.194 4.92.76 6.244 1.033 1.324.274 2.234.434 1.702.608-.53.173-3.84.136-4.89.434-1.048.298-2.12 1.236-1.403 1.351.716.116 4.446-.86 5.702-.659 1.256.203 1.519 2.089 1.836 1.873.317-.216.031-2.182.066-3.167.036-.985.832-2.968.146-2.743-.686.225-3.322 4.326-4.262 4.093-.939-.233-1.493-4.788-1.375-5.491" stroke="#000" fill="none"/></g><g><path d="M920.738 1008.553c.259.358 2.419 3.311 2.148 4.038-.271.728-3.819.341-3.774.326.044-.016 3.395-.462 4.04-.42.646.041.723.395-.168.67-.891.274-4.536.94-5.179.976-.642.037.273-.967 1.326-.756 1.053.212 4.233 1.807 4.992 2.027.76.22-.491-.102-.438-.707.053-.606.116-1.974.758-2.925.642-.952 3.158-3.307 3.093-2.785-.064.523-2.188 5.707-3.48 5.92-1.293.213-3.911-3.512-4.277-4.643m-.529.527c.019.533 2.553.045 2.474.11-.079.064-2.714.372-2.948.276-.233-.097.508-1.264 1.547-.855 1.039.41 4.915 2.75 4.688 3.313-.227.562-4.64-.208-6.049.059-1.41.267-3.17 1.214-2.408 1.544.762.33 5.535.216 6.98.436 1.445.22 1.419 1.606 1.69.883.27-.723-.547-3.6-.065-5.22.482-1.62 3.31-5.084 2.957-4.501-.352.583-3.632 7.474-5.072 7.998-1.44.523-3.346-4.218-3.567-4.856" stroke="#000" fill="none"/></g><g><path d="M981.362 1009.862c.612.58 3.374 3.04 2.819 3.546-.556.506-5.878-.356-6.152-.51-.274-.153 3.652-.827 4.508-.41.856.416 1.38 2.69.627 2.908-.754.218-4.48-1.559-5.15-1.602-.67-.043.179 1.15 1.134 1.345.954.195 3.65-.53 4.594-.175.942.354 1.055 2.605 1.063 2.3.008-.304-1.281-2.71-1.015-4.126.267-1.416 2.601-4.907 2.615-4.37.015.538-1.513 7.142-2.528 7.598-1.016.455-2.855-3.978-3.566-4.864m-.108.639c.555.26 4.01-.978 3.497-.64-.513.336-6.465 2.357-6.574 2.661-.11.304 5.168-.6 5.918-.84.75-.238-.791-.458-1.418-.593-.627-.135-1.504-.97-2.345-.214-.841.756-3.313 4.444-2.701 4.748.612.305 5.257-2.737 6.372-2.922 1.115-.185.117 2.074.32 1.81.201-.264.372-2.285.892-3.393.52-1.108 2.46-3.864 2.228-3.257-.232.606-2.603 6.611-3.62 6.895-1.018.284-2.346-4.317-2.484-5.192" stroke="#000" fill="none"/></g><g><path d="M690.359 633.815c.095.314 2.639 2.174 2.574 2.796-.064.623-2.824.687-2.96.94-.136.251 1.374.507 2.144.572.77.064 3.194-.17 2.475-.185-.72-.015-5.962-.221-6.793.098-.831.318.66 1.316 1.805 1.813 1.145.498 4.242 1.078 5.067 1.17.825.091-.152-.004-.117-.618.035-.614-.004-2.108.328-3.067.332-.958 1.887-3.234 1.663-2.683-.224.551-2 5.93-3.01 5.988-1.01.06-2.753-4.5-3.052-5.635m1.521.869c.379.465 3.499 1.36 3.125 1.875-.374.514-4.858 1.51-5.367 1.212-.509-.298 1.695-2.835 2.313-3 .62-.166 1.975 1.277 1.4 2.008-.575.731-4.373 2.291-4.85 2.378-.478.087 1.08-2.011 1.982-1.856.903.155 2.499 2.154 3.434 2.788.936.635 1.937 1.755 2.18 1.02.243-.737-.73-3.807-.72-5.437.008-1.63.762-4.972.775-4.346.014.626.316 7.813-.693 8.102-1.01.288-4.632-5.116-5.36-6.37" stroke="#000" fill="none"/></g><g><path d="M660.982 633.892c.314.769 3.007 4.05 2.796 4.54-.21.488-4.105-1.543-4.061-1.607.044-.063 3.633 1.111 4.322 1.225.69.114.663-.753-.184-.543-.848.21-4.18 1.285-4.903 1.805-.723.52-.558 1.326.564 1.317 1.122-.008 5.244-1.401 6.17-1.366.924.035-.63 2.079-.619 1.577.011-.501-.024-3.32.684-4.587.708-1.266 3.641-3.457 3.567-3.01-.074.449-2.82 5.372-4.012 5.699-1.191.326-2.417-2.874-3.135-3.74m.455.788c.712.548 4.06.563 3.463.873-.597.311-6.81 1.16-7.046.991-.235-.169 4.53-1.915 5.636-2.006 1.107-.09 1.774 1 1.004 1.463-.77.464-4.705.927-5.628 1.322s-.777 1.052.09 1.047c.868-.006 4.027-1.018 5.115-1.08 1.088-.062 1.209.662 1.415.707.207.045-.151.445-.177-.435-.027-.88.386-5.312.02-4.843-.368.47-1.549 7.572-2.223 7.659-.675.086-1.68-6.294-1.827-7.14" stroke="#000" fill="none"/></g><g><path d="M721.058 635.361c.77.623 4.884 2.77 4.54 3.44-.344.668-6.334.716-6.606.572-.272-.144 4.236-1.42 4.975-1.435.738-.015.08 1.029-.543 1.348-.623.318-2.674.066-3.195.563-.522.498-.55 2.328.067 2.42.617.091 2.765-1.88 3.633-1.868.869.01 1.454 2.058 1.578 1.933.123-.125-1.238-1.567-.837-2.683.4-1.116 3.417-4.279 3.24-4.012-.176.267-3.378 5.708-4.302 5.615-.923-.092-.79-5.413-1.24-6.17m.375 2.49c.796.936 3.263 2.881 2.462 2.856-.801-.025-7.161-2.716-7.267-3.007-.106-.292 5.449.934 6.63 1.258 1.181.324 1.496.667.458.686-1.037.02-6.07-.93-6.684-.571-.615.36 1.676 2.58 2.993 2.727 1.317.147 3.905-1.745 4.907-1.843 1.002-.1 1.335 1.24 1.103 1.25-.232.01-2.61.068-2.496-1.192.114-1.26 3.096-6.566 3.182-6.372.086.193-1.788 6.865-2.665 7.532-.877.668-2.248-2.846-2.597-3.526" stroke="#000" fill="none"/></g><g><path d="M475.64 804.017c-.104-12.937-.426-64.25-.411-76.897m-.8 75.73c-.316-12.854-.254-62.435-.116-74.654" stroke="#000" stroke-width="4" fill="none"/><path d="M484.045 756.541c-4.806-9.206-6.717-21.499-9.863-28.552m10.995 28.946c-3.74-9.49-8.463-18.786-10.737-28.552" stroke="#000" stroke-width="4" fill="none"/><path d="M463.524 756.438c2.517-9.25 7.93-21.506 10.658-28.449m-9.526 28.843c3.225-9.479 5.465-18.74 9.784-28.449" stroke="#000" stroke-width="4" fill="none"/></g><g><text y="23" font-family="Virgil, Segoe UI Emoji" font-size="20" style="white-space:pre" transform="translate(503.917 746.5)">Get</text></g></svg>